<svg id="Layer_1" data-name="Layer 1" xmlns="http://www.w3.org/2000/svg" viewBox="0 0 67.84 107.61"><defs><style>.cls-1{fill:none;stroke-width:4px;}.cls-1,.cls-2{stroke:#00a693;stroke-miterlimit:10;}.cls-2,.cls-3{fill:#00a693;}.cls-2{stroke-width:2px;}</style></defs><title>BLACK S</title><path class="cls-1" d="M230.41,295.23l22.25-20.67a7.69,7.69,0,0,1,5.25-2.06h2.43a7.68,7.68,0,0,1,5.13,1.95l23.35,20.77a8.29,8.29,0,0,1,2.78,6.2v23.84a8.3,8.3,0,0,1-2.67,6.1l-29.25,27.06-29.28-27.3a8.32,8.32,0,0,1-2.64-6.08V301.32A8.32,8.32,0,0,1,230.41,295.23Z" transform="translate(-225.76 -270.5)"/><path class="cls-1" d="M259.68,297.51" transform="translate(-225.76 -270.5)"/><line class="cls-1" x1="33.92" y1="17.74" x2="33.92" y2="2"/><line class="cls-1" x1="33.55" y1="61.53" x2="39.92" y2="54.53"/><polyline class="cls-1" points="33.92 87.92 33.92 67.55 33.92 60.19"/><line class="cls-1" x1="33.86" y1="61.53" x2="27.49" y2="54.53"/><path class="cls-2" d="M253.93,321.58H254a.92.92,0,0,1,.92.92v6.55a1,1,0,0,1-1,1h0a1,1,0,0,1-1-1V322.6A1,1,0,0,1,253.93,321.58Z" transform="translate(-379.31 -12.51) rotate(-42.62)"/><path class="cls-2" d="M264.95,321.56h0a1,1,0,0,1,1,1v6.55a.92.92,0,0,1-.92.92h-.09a1,1,0,0,1-1-1v-6.45A1,1,0,0,1,264.95,321.56Z" transform="translate(13.56 474.46) rotate(-137.38)"/><path class="cls-3" d="M227.73,361.14h2.4v7.52a2.45,2.45,0,0,0,.22,1.21c.14.25.48.38,1,.38h.21v2.57h-.21a3.53,3.53,0,0,1-2.77-1,4.37,4.37,0,0,1-.86-2.94Z" transform="translate(-225.76 -270.5)"/><path class="cls-3" d="M232.55,372.82h-1.31v-2.57h1.33a.86.86,0,0,0,.81-.37,1.84,1.84,0,0,0,.22-1,5.68,5.68,0,0,0-.14-1.24c-.09-.46-.19-.9-.29-1.33l2.32-.6c.11.54.2,1.07.26,1.59a13.5,13.5,0,0,1,.1,1.51,6.37,6.37,0,0,1-.3,2,2.8,2.8,0,0,1-1,1.42A3.3,3.3,0,0,1,232.55,372.82Zm1-11,1.55,1.55-1.55,1.55L232,363.35Z" transform="translate(-225.76 -270.5)"/><path class="cls-3" d="M237.73,361.14h2.39v7.52a2.57,2.57,0,0,0,.22,1.21c.15.25.49.38,1,.38h.21v2.57h-.21a3.52,3.52,0,0,1-2.77-1,4.32,4.32,0,0,1-.86-2.94Z" transform="translate(-225.76 -270.5)"/><path class="cls-3" d="M247,372.82a3.15,3.15,0,0,1-1.4-.28,2.75,2.75,0,0,1-1-.72,3.64,3.64,0,0,1-1.1.73,4,4,0,0,1-1.57.27h-.76v-2.57H242a4.8,4.8,0,0,0,.94-.07.75.75,0,0,0,.51-.33,1.46,1.46,0,0,0,.17-.8c0-.08,0-.23,0-.46s0-.46-.05-.73,0-.49,0-.68l2.22-.28.18,2.35a1,1,0,0,0,1.12,1,1.11,1.11,0,0,0,.87-.25,1.53,1.53,0,0,0,.22-.95c0-.07,0-.22,0-.45s0-.47-.05-.73,0-.5-.05-.69l2.22-.28.18,2.35a1.3,1.3,0,0,0,.24.74.83.83,0,0,0,.7.26.62.62,0,0,0,.63-.37,2,2,0,0,0,.17-.89,5.81,5.81,0,0,0-.09-1c-.06-.35-.13-.66-.2-.94s-.12-.48-.16-.59l2.29-.63c.11.46.21.94.28,1.44a9.81,9.81,0,0,1,.11,1.52,7,7,0,0,1-.27,2,3.06,3.06,0,0,1-.94,1.49,2.65,2.65,0,0,1-1.81.57,2.44,2.44,0,0,1-1.25-.3,3.41,3.41,0,0,1-.87-.72,4.94,4.94,0,0,1-1,.72A2.54,2.54,0,0,1,247,372.82Z" transform="translate(-225.76 -270.5)"/><path class="cls-3" d="M262.85,369.42a7.76,7.76,0,0,1,.78-1.71,4.47,4.47,0,0,1,1.19-1.32,2.6,2.6,0,0,1,1.58-.51,3.6,3.6,0,0,1,1.83.45,3.09,3.09,0,0,1,1.21,1.27,4,4,0,0,1,.43,1.93,4.33,4.33,0,0,1-.33,1.7,3,3,0,0,1-1,1.25,2.68,2.68,0,0,1-1.62.48,3.37,3.37,0,0,1-.95-.16c-.34-.11-.68-.23-1-.36l-.91-.36a1.79,1.79,0,0,0-.64-.16c-.14,0-.25.13-.32.38a4.75,4.75,0,0,0-.16,1c0,.42-.05.86-.05,1.34s0,1,0,1.46,0,.9.07,1.27l.06.73h-2.44q0-.92-.09-1.8t0-1.68a17.82,17.82,0,0,1,.16-2.6,3.76,3.76,0,0,1,.67-1.76A2.31,2.31,0,0,1,262.85,369.42Zm4.78.09a1.2,1.2,0,0,0-.32-.8,1.12,1.12,0,0,0-.88-.37.88.88,0,0,0-.6.24,2,2,0,0,0-.46.57,3.63,3.63,0,0,0-.3.64c.32.15.66.3,1,.43a2.5,2.5,0,0,0,.89.21.51.51,0,0,0,.52-.29A1.33,1.33,0,0,0,267.63,369.51Z" transform="translate(-225.76 -270.5)"/><path class="cls-3" d="M271.75,361.14h2.4v7.52a2.57,2.57,0,0,0,.22,1.21c.15.25.49.38,1,.38h.21v2.57h-.21a3.52,3.52,0,0,1-2.77-1,4.32,4.32,0,0,1-.87-2.94Z" transform="translate(-225.76 -270.5)"/><path class="cls-3" d="M275.46,373.84l1.41,1.39,1.41-1.39,1.47,1.46-1.47,1.47-1.41-1.41-1.41,1.41L274,375.3Zm-.21-3.59h1.25a1.88,1.88,0,0,0,1.21-.28,1.38,1.38,0,0,0,.33-1.08q0-.5,0-1c0-.32,0-.63-.06-.94l2.2-.26.18,2.45a1.18,1.18,0,0,0,.33.85,1.38,1.38,0,0,0,.93.25h.17v2.57h-.19a3.25,3.25,0,0,1-1.41-.29,3.29,3.29,0,0,1-1-.74,4.07,4.07,0,0,1-1.2.75,3.81,3.81,0,0,1-1.47.28h-1.25Z" transform="translate(-225.76 -270.5)"/><path class="cls-3" d="M281.43,370.25h1.41a9.81,9.81,0,0,0,1.93-.18,10.25,10.25,0,0,0,1.85-.57c.64-.26,1.37-.59,2.17-1-.85-.31-1.52-.56-2-.75a3.15,3.15,0,0,0-1-.28,1.21,1.21,0,0,0-.79.28,3.11,3.11,0,0,0-.58.56l-.48.6-2-1,.42-.68a5.81,5.81,0,0,1,1.44-1.63,3.09,3.09,0,0,1,2-.65,3.52,3.52,0,0,1,1.1.21c.41.14.86.32,1.34.54l1.48.65c.51.21,1,.39,1.51.54a5.32,5.32,0,0,0,1.43.23v2.34a5.28,5.28,0,0,0-1.23.3,8.39,8.39,0,0,0-1.12.5L289,371c-.71.38-1.38.7-2,1a10.65,10.65,0,0,1-2,.63,10.84,10.84,0,0,1-2.23.21h-1.39ZM286.6,361l1.56,1.55-1.56,1.55-1.54-1.55Z" transform="translate(-225.76 -270.5)"/><path class="cls-2" d="M33.92,15.54H34a.92.92,0,0,1,.92.92v9a1,1,0,0,1-1,1h0a1,1,0,0,1-1-1v-8.9a1,1,0,0,1,1-1Z"/><polygon class="cls-1" points="34.12 72.17 4.25 45.25 33.61 17.79 64.47 45.7 34.12 72.17"/></svg>